<?xml version="1.0" encoding="UTF-8"?> <svg xmlns="http://www.w3.org/2000/svg" id="Layer_1" data-name="Layer 1" viewBox="0 0 1200 640"><defs><style>.cls-1{fill:#fff;}</style></defs><title>Getac</title><path class="cls-1" d="M589.2,556c-2.37,0-4.72,0-7.07-.11l48.62-133.65h66.92c11.75,0,24.65-9,28.66-20.06l52.76-144.92c8.64-23.72-5-43.13-30.2-43.13H656.05l-77.9,214.06h0L534,549.53c-104.77-24.91-182.7-119.09-182.7-231.48,0-109.16,73.5-201.13,173.7-229.17L479.39,214.13h0L403.62,422.24h50.43L518.47,245.4h37.9L492,422.25h50.41l60-165c8.63-23.72-5-43.13-30.18-43.13H529.83L578.5,80.35c3.55-.16,7.11-.25,10.7-.25,131.41,0,237.95,106.53,237.95,238S720.61,556,589.2,556Zm144-310.73H695.28L642.22,390.86h37.89Z"></path></svg> 